<?xml version="1.0" encoding="UTF-8"?> <svg xmlns="http://www.w3.org/2000/svg" width="540" height="240" viewBox="0 0 540 240" fill="none"><rect width="540" height="240" rx="5" fill="#1976D2"></rect><mask id="mask0_52_2087" style="mask-type:alpha" maskUnits="userSpaceOnUse" x="0" y="0" width="540" height="240"><rect width="540" height="240" rx="5" fill="#1976D2"></rect></mask><g mask="url(#mask0_52_2087)"><path d="M454.167 108.231V108.731H454.667H513.263L489.928 167.346H454.667H454.167V167.846V298.5H383.967V167.846V167.346H383.467H336.5V108.731H383.467H383.967V108.231V60.5385C383.967 21.2993 415.619 -10.5 454.667 -10.5H501.633V48.1154H478.4C477.351 48.1154 476.313 48.1073 475.293 48.0994C473.147 48.0828 471.08 48.0667 469.149 48.1276C466.297 48.2174 463.686 48.4752 461.472 49.1633C459.249 49.8543 457.403 50.987 456.122 52.8376C454.844 54.6826 454.167 57.1839 454.167 60.5385V108.231Z" stroke="white" stroke-opacity="0.2"></path></g></svg> 