<?xml version="1.0" encoding="UTF-8"?> <svg xmlns="http://www.w3.org/2000/svg" width="540" height="240" viewBox="0 0 540 240" fill="none"><rect width="540" height="240" rx="5" fill="url(#paint0_linear_52_2085)"></rect><mask id="mask0_52_2085" style="mask-type:alpha" maskUnits="userSpaceOnUse" x="0" y="0" width="540" height="240"><rect width="540" height="240" rx="5" fill="url(#paint1_linear_52_2085)"></rect></mask><g mask="url(#mask0_52_2085)"><path d="M427.925 -31.3303C427.951 -31.3303 427.978 -31.3303 428.004 -31.3303C434.919 -31.3307 441.604 -31.3757 448.068 -31.4193C472.922 -31.5868 494.53 -31.7324 513.532 -29.2318C537.466 -26.0819 557.199 -18.7387 573.974 -1.97734L574.327 -2.33103L573.974 -1.97724C590.541 14.5673 597.894 33.8595 601.103 57.6173C603.701 76.8459 603.58 98.9591 603.438 124.884C603.405 131.029 603.37 137.389 603.37 143.975C603.37 150.064 603.392 155.925 603.413 161.573C603.482 179.936 603.542 196.051 602.812 210.432C601.858 229.232 599.554 245.022 594.171 258.935C581.013 292.668 556.763 307.745 527.154 314.403C502.692 319.903 474.62 319.649 446.144 319.391C440.092 319.336 434.022 319.281 427.965 319.281C422.164 319.281 416.384 319.323 410.644 319.365C380.94 319.581 352.328 319.789 327.701 314.121C298.367 307.37 274.749 292.294 261.778 258.935C256.467 245.274 254.162 227.853 253.189 208.164C252.427 192.723 252.485 175.922 252.546 158.484C252.563 153.691 252.579 148.85 252.579 143.975C252.579 137.974 252.558 132.186 252.538 126.598C252.47 108.196 252.41 91.9711 253.145 77.4932C254.102 58.6232 256.406 42.7701 261.777 28.9965L261.311 28.8148M427.925 -31.3303V-31.8303C422.124 -31.8307 416.347 -31.8724 410.613 -31.9138C345.124 -32.3863 285.345 -32.8176 261.311 28.8148M427.925 -31.3303C422.114 -31.3307 416.33 -31.3723 410.593 -31.4136C380.726 -31.6286 352.121 -31.8345 327.542 -26.1654C312.896 -22.7871 299.708 -17.3271 288.56 -8.55595C277.415 0.212528 268.285 12.3087 261.777 28.9965L261.311 28.8148M427.925 -31.3303L261.311 28.8148M440.499 -0.836655C431.783 -0.754614 422.539 -0.667606 412.74 -0.649691V-0.689016L412.24 -0.688509C382.927 -0.658762 360.201 -0.498535 342.622 1.94698C325.038 4.3933 312.519 9.13633 303.685 18.3994C294.857 27.6561 289.781 41.351 286.901 61.5307C284.02 81.7133 283.326 108.462 283.326 143.896C283.326 178.916 283.577 205.473 286.15 225.59C288.722 245.707 293.626 259.479 303.008 268.855C312.391 278.231 326.171 283.131 346.296 285.7C366.423 288.27 392.991 288.52 428.024 288.52C435.084 288.52 442.031 288.596 448.825 288.671C460.502 288.799 471.729 288.922 482.311 288.645C499.056 288.206 514.253 286.766 527.177 282.742C540.111 278.714 550.786 272.092 558.456 261.285C566.121 250.485 570.749 235.557 571.69 214.979C574.33 156.969 575.116 114.474 572.455 83.3751C569.794 52.2892 563.683 32.4897 552.438 19.9629C541.179 7.41941 524.86 2.26109 502.045 0.231281C485.301 -1.25835 464.983 -1.06711 440.499 -0.836655ZM501.308 50.121C501.308 38.7525 510.535 29.5331 521.913 29.5331C533.292 29.5331 542.518 38.7525 542.518 50.121C542.518 61.4895 533.292 70.7089 521.913 70.7089C510.535 70.7089 501.308 61.4895 501.308 50.121ZM338.169 143.975C338.169 94.3984 378.388 54.1919 428.004 54.1919C477.621 54.1919 517.82 94.3982 517.82 143.975C517.82 193.552 477.621 233.739 428.004 233.739C378.387 233.739 338.169 193.552 338.169 143.975ZM428.004 203.077C447.548 203.077 462.236 195.695 472.031 184.595C481.818 173.504 486.695 158.731 486.689 143.975C486.682 129.219 481.793 114.446 472.003 103.356C462.205 92.2555 447.524 84.8734 428.004 84.8734C408.46 84.8734 393.774 92.2554 383.98 103.356C374.195 114.446 369.32 129.219 369.328 143.975C369.335 158.732 374.225 173.504 384.014 184.595C393.811 195.695 408.49 203.077 428.004 203.077Z" stroke="white" stroke-opacity="0.2"></path></g><defs><linearGradient id="paint0_linear_52_2085" x1="36.2565" y1="224.364" x2="218.85" y2="-131.278" gradientUnits="userSpaceOnUse"><stop stop-color="#FFDD55"></stop><stop offset="0.5" stop-color="#FF543E"></stop><stop offset="1" stop-color="#C837AB"></stop></linearGradient><linearGradient id="paint1_linear_52_2085" x1="36.2565" y1="224.364" x2="218.85" y2="-131.278" gradientUnits="userSpaceOnUse"><stop stop-color="#FFDD55"></stop><stop offset="0.5" stop-color="#FF543E"></stop><stop offset="1" stop-color="#C837AB"></stop></linearGradient></defs></svg> 